<svg width="208" height="217" viewBox="0 0 208 217" fill="none" xmlns="http://www.w3.org/2000/svg">
<g id="Group 3">
<g id="Group 2">
<g id="Group 1">
<circle id="Ellipse 1" cx="104" cy="113" r="102.5" stroke="#9F8D58" stroke-width="3"/>
<circle id="Ellipse 2" cx="103.5" cy="113.5" r="90" fill="#9F8D58" stroke="#9F8D58" stroke-width="3"/>
</g>
<path id="Vector 5" d="M134.849 12.5L118.849 3C118.849 3 113.349 16.5 130.349 105C135.008 129.255 143.594 147.1 147.849 159.5C161.849 192 163.849 190 163.849 190L182.849 191.5C182.849 191.5 167.349 171.5 155.647 136C143.945 100.5 145.271 104.6 141.849 86C130.349 23.5 134.849 12.5 134.849 12.5Z" fill="white" stroke="#9F8D58" stroke-width="3"/>
</g>
<path id="Vector 6" d="M59.5 141.5V138L46 129V133L59.5 141.5Z" fill="white"/>
<path id="Vector 11" d="M59.5 164.5V161L46 152V156L59.5 164.5Z" fill="white"/>
<path id="Vector 10" d="M59.5 152.5V149L46 140V144L59.5 152.5Z" fill="white"/>
<path id="Vector 9" d="M46 49V119L59.5 129V73.5L89.5 93L118 70.5L116 54.5L88 75.5L46 49Z" fill="white" stroke="#9F8D58"/>
<path id="Vector 4" d="M91 189.5L81 207L68 203C68 203 91.5 157.5 94 152.5C96.5 147.5 111.5 97 111.5 97L122.5 104L116.5 129L108.5 151C108.5 151 116.5 148.5 124 149C131.5 149.5 139 152.5 139 152.5L131.5 164C131.5 164 124 164 116.5 165C109 166 104 168 100.5 172.5C97 177 91 189.5 91 189.5Z" fill="white" stroke="white"/>
</g>
</svg>
