<svg width="207" height="216" viewBox="0 0 207 216" fill="none" xmlns="http://www.w3.org/2000/svg">
<path id="Start" fill-rule="evenodd" clip-rule="evenodd" d="M121.845 0.555323C121.587 1.29283 121.248 3.63009 121.091 5.74979L120.806 9.60497L103.306 9.80955C88.0188 9.98819 84.5898 10.3415 76.1858 12.6009C38.1148 22.8371 9.47081 53.4261 1.16881 92.7114C0.435805 96.1794 -0.054196 104.999 0.00480403 113.669C0.127804 131.798 2.7178 143.438 9.8248 157.818C25.2378 189.003 54.0628 210.026 88.2468 215.015C99.4228 216.646 117.453 215.747 128.306 213.016C138.211 210.525 156.44 201.935 164.237 196.085C169.616 192.049 169.749 192.01 178.32 192.01C183.079 192.01 187.248 191.736 187.585 191.399C187.921 191.063 186.812 188.339 185.119 185.346L182.042 179.906L185.192 175.728C199.283 157.043 206.306 136.069 206.306 112.671C206.306 84.3005 196.589 60.6285 176.806 40.8007C166.228 30.1992 158.113 24.2882 147.056 19.1326C140.883 16.2535 140.306 15.7236 140.304 12.9322C140.302 9.72672 139.463 9.02913 127.06 1.93153C123.46 -0.12829 122.201 -0.460616 121.845 0.555323ZM137.437 26.5117C139.464 75.6131 154.146 130.982 177.406 177.239C180.136 182.668 182.103 187.538 181.778 188.063C181.089 189.176 170.341 189.33 168.67 188.253C167.077 187.224 158.039 170.105 153.197 158.944C135.12 117.274 124.388 65.4447 124.327 19.5189L124.306 4.20891L130.556 7.70881L136.806 11.2087L137.437 26.5117ZM117.806 14.2446C120.65 14.8483 120.821 15.1667 121.099 20.3721L121.391 25.863L105.099 25.855C83.9098 25.845 74.0938 28.315 57.8058 37.7569C48.8098 42.9713 33.1078 58.5347 28.0368 67.263C2.7698 110.751 17.2948 165.268 60.5848 189.428C64.1118 191.397 67.6618 193.008 68.4728 193.008C71.1588 193.008 89.0128 158.64 96.9878 138.119C100.9 128.053 107.197 109.315 108.893 102.691C109.737 99.3978 110.867 95.0197 111.405 92.9609C111.943 90.9021 112.953 89.2185 113.649 89.2185C114.345 89.2185 116.99 90.5318 119.526 92.1366L124.137 95.0556L119.278 110.849C116.605 119.535 113.268 129.684 111.862 133.402C110.456 137.119 109.306 140.353 109.306 140.588C109.306 140.824 113.019 140.762 117.556 140.452C125.436 139.913 136.836 141.243 138.491 142.895C138.919 143.322 137.86 145.958 136.138 148.753L133.007 153.834L123.406 154.325C113.374 154.838 102.871 158.038 101.179 161.097C100.731 161.907 98.3848 166.836 95.9658 172.05C93.5468 177.265 89.4628 185.084 86.8898 189.427C83.4158 195.291 82.5378 197.524 83.4768 198.104C85.5678 199.393 97.2538 200.507 106.306 200.278C121.739 199.89 140.568 193.612 153.306 184.609C155.781 182.86 158.352 181.097 159.02 180.694C159.822 180.21 161.097 181.658 162.77 184.954C164.165 187.701 165.306 190.153 165.306 190.403C165.306 191.491 150.837 200.321 143.842 203.502C131.487 209.121 122.587 211.081 106.806 211.658C95.0888 212.086 91.1528 211.829 82.6718 210.078C64.2148 206.269 49.0818 198.331 35.1068 185.128C9.1528 160.608 -1.58819 126.293 5.76681 91.3981C13.7988 53.2934 45.8788 22.2344 84.8058 14.8763C92.0238 13.511 112.501 13.1198 117.806 14.2446ZM153.537 26.8909C173.345 38.4425 189.009 57.3252 196.761 78.9972C204.879 101.689 204.31 128.854 195.265 150.539C191.918 158.561 182.524 174.177 180.691 174.764C180.078 174.961 178.396 172.633 176.954 169.593L174.331 164.066L177.625 158.827C181.894 152.037 185.804 143.105 188.03 135.059C190.554 125.934 190.55 99.4088 188.022 90.2165C182.018 68.3797 165.549 47.2416 146.056 36.3527L140.306 33.1412V26.7362V20.3312L143.787 21.7833C145.702 22.5816 150.09 24.88 153.537 26.8909ZM74.0488 65.0046C82.9828 70.7579 90.8578 75.2418 91.5488 74.9684C92.2408 74.6939 98.4298 70.1332 105.304 64.8329L117.801 55.1955L118.434 58.4848C120.488 69.1672 120.547 68.8757 115.487 73.0523C108.595 78.7427 91.7388 91.2144 90.9418 91.2144C90.5628 91.2144 84.2018 87.1726 76.8058 82.2327C69.4098 77.2927 63.1218 73.2509 62.8318 73.2509C62.5428 73.2509 62.3058 84.9272 62.3058 99.1982C62.3058 116.731 61.9638 125.146 61.2508 125.146C60.6708 125.146 57.5208 123.332 54.2508 121.117L48.3058 117.087V83.0989V49.1098L53.0558 51.8273C55.6678 53.3213 65.1158 59.2513 74.0488 65.0046ZM55.7288 130.419C61.5058 134.524 63.6648 137.121 61.2978 137.121C59.3408 137.121 48.3058 128.946 48.3058 127.496C48.3058 125.454 49.2778 125.837 55.7288 130.419ZM55.7288 142.395C61.4748 146.476 63.6658 149.097 61.3338 149.097C59.2858 149.097 48.3058 141.075 48.3058 139.579C48.3058 137.422 49.2108 137.765 55.7288 142.395ZM55.4228 154.166C61.1308 158.035 63.2438 160.469 61.9838 161.726C61.0578 162.652 48.8518 153.682 48.4908 151.812C48.0198 149.373 48.6828 149.599 55.4228 154.166ZM137.135 168.88C137.372 170.547 136.88 171.351 135.385 171.741C133.062 172.347 132.544 174.046 134.684 174.046C136.349 174.046 137.822 175.763 138.751 178.787C139.362 180.777 139.092 181.032 136.373 181.032C133.973 181.032 133.306 180.598 133.306 179.036C133.306 177.939 132.893 177.04 132.388 177.04C131.883 177.04 130.753 176.766 129.876 176.431C128.726 175.989 128.45 176.253 128.882 177.377C129.701 179.507 126.062 183.255 123.957 182.449C121.952 181.681 121.753 179.036 123.7 179.036C124.543 179.036 125.037 178.095 124.95 176.657L124.806 174.279L121.622 177.068C119.87 178.603 117.508 180.153 116.372 180.512C115.236 180.873 114.306 181.612 114.306 182.156C114.306 182.701 113.894 182.892 113.391 182.582C112.888 182.272 112.317 182.495 112.122 183.079C111.432 185.146 108.525 182.912 108.666 180.423C108.783 178.348 109.184 178.043 111.154 178.536C114.139 179.283 113.64 176.975 110.51 175.564C107.909 174.392 107.356 173.183 108.262 170.649C108.912 168.829 109.028 168.842 111.018 170.974C113.166 173.275 114.789 172.472 113.702 169.645C113.367 168.773 113.478 168.053 113.949 168.045C114.42 168.038 115.818 167.76 117.056 167.43C118.986 166.913 119.306 167.214 119.306 169.548C119.306 172.042 119.533 172.201 122.056 171.467C123.568 171.027 127.056 170.641 129.806 170.61C133.559 170.567 134.806 170.18 134.806 169.057C134.806 168.039 134.006 167.663 132.306 167.885C125.721 168.742 121.306 168.775 121.306 167.967C121.306 167.476 123.107 167.145 125.309 167.231C127.51 167.317 129.631 167.069 130.023 166.678C130.414 166.287 132.1 166.102 133.77 166.265C136.076 166.49 136.885 167.119 137.135 168.88Z" fill="#9F8D58"/>
</svg>
