<svg xmlns="http://www.w3.org/2000/svg" width="216" height="225" fill="none"><g filter="url(#a)"><g stroke="#9F8D58" stroke-width="3"><circle cx="108" cy="113" r="102.5"/><circle cx="107.5" cy="113.5" r="90" fill="#9F8D58"/><path fill="#fff" d="m138.849 12.5-16-9.5s-5.5 13.5 11.5 102c4.659 24.255 13.245 42.1 17.5 54.5 14 32.5 16 30.5 16 30.5l19 1.5s-15.5-20-27.202-55.5c-11.702-35.5-10.376-31.4-13.798-50-11.5-62.5-7-73.5-7-73.5Z"/></g><path fill="#fff" d="M63.5 141.5V138L50 129v4l13.5 8.5ZM63.5 164.5V161L50 152v4l13.5 8.5ZM63.5 152.5V149L50 140v4l13.5 8.5Z"/><path fill="#fff" stroke="#9F8D58" d="M50 49v70l13.5 10V73.5l30 19.5L122 70.5l-2-16-28 21L50 49Z"/><path fill="#fff" stroke="#fff" d="M95 189.5 85 207l-13-4s23.5-45.5 26-50.5S115.5 97 115.5 97l11 7-6 25-8 22s8-2.5 15.5-2 15 3.5 15 3.5l-7.5 11.5s-7.5 0-15 1-12.5 3-16 7.5-9.5 17-9.5 17Z"/><g fill="#9F8D58"><path d="M57.7 92.204c.117-.062.24-.12.368-.17.125-.056.252-.109.38-.16a12.295 12.295 0 0 1-.39-.16 4.87 4.87 0 0 1-.369-.175l-4.406-2.355a.68.68 0 0 1-.132-.087.314.314 0 0 1-.071-.105.495.495 0 0 1-.027-.132 2.247 2.247 0 0 1-.006-.17v-1.117H61v1.303h-5.137c-.095 0-.2-.001-.313-.005-.114-.007-.23-.016-.347-.027l4.51 2.403a.657.657 0 0 1 .242.215c.055.087.083.19.083.307v.204c0 .117-.028.22-.083.308a.657.657 0 0 1-.242.215l-4.526 2.436a4.05 4.05 0 0 1 .357-.028c.114-.007.22-.01.319-.01H61v1.303h-7.953V95.08c0-.066.002-.122.006-.17a.43.43 0 0 1 .027-.126.3.3 0 0 1 .072-.11.557.557 0 0 1 .131-.094l4.417-2.376ZM61 78.98v1.144a.523.523 0 0 1-.093.319.576.576 0 0 1-.242.176l-1.623.594v3.294l1.622.594c.085.03.162.088.231.177.07.084.105.188.105.313v1.15l-7.953-3.124v-1.513L61 78.98Zm-3.003 5.148v-2.535l-2.645.968c-.118.043-.255.093-.413.148a13.78 13.78 0 0 1-.523.154c.188.051.362.103.523.154.161.048.303.095.423.143l2.635.968ZM54.493 73.898c.081.04.138.088.171.143.033.052.05.114.05.187a.493.493 0 0 1-.083.248c-.059.092-.123.2-.193.324-.07.125-.132.272-.187.44a1.76 1.76 0 0 0-.087.589c0 .205.025.385.076.539.048.15.116.279.204.385a.83.83 0 0 0 .319.23c.121.052.255.078.401.078a.71.71 0 0 0 .468-.154c.125-.106.231-.246.319-.418s.167-.369.236-.589c.07-.22.145-.443.226-.67.077-.232.169-.457.275-.677.103-.22.235-.416.396-.589.158-.172.352-.31.583-.412.231-.106.511-.16.841-.16.36 0 .697.063 1.012.187.312.121.585.301.82.54.231.234.414.522.55.863.132.34.198.731.198 1.171 0 .253-.026.503-.077.748a3.855 3.855 0 0 1-.209.71 3.835 3.835 0 0 1-.33.632 3.163 3.163 0 0 1-.429.523l-.71-.43a.523.523 0 0 1-.126-.142.356.356 0 0 1-.055-.193c0-.091.038-.19.115-.297.074-.106.156-.23.248-.374.092-.146.176-.317.253-.511.073-.198.11-.435.11-.71 0-.421-.099-.748-.297-.979-.202-.23-.49-.346-.864-.346a.79.79 0 0 0-.511.16c-.132.102-.242.24-.33.412a2.978 2.978 0 0 0-.231.588c-.062.22-.13.444-.204.671a5.777 5.777 0 0 1-.264.671c-.102.22-.236.417-.401.589-.165.172-.37.312-.616.418-.25.103-.555.154-.918.154-.29 0-.572-.057-.847-.17a2.222 2.222 0 0 1-.732-.507 2.53 2.53 0 0 1-.511-.82 2.974 2.974 0 0 1-.193-1.105c0-.469.073-.902.22-1.298.147-.396.352-.733.616-1.012l.698.363ZM54.493 68a.4.4 0 0 1 .171.144c.033.051.05.114.05.187a.493.493 0 0 1-.083.247 6.45 6.45 0 0 0-.193.325 2.48 2.48 0 0 0-.187.44 1.76 1.76 0 0 0-.087.588c0 .206.025.385.076.54.048.15.116.278.204.384a.83.83 0 0 0 .319.231c.121.052.255.077.401.077a.71.71 0 0 0 .468-.154 1.34 1.34 0 0 0 .319-.418c.088-.172.167-.368.236-.588.07-.22.145-.444.226-.671.077-.231.169-.457.275-.677.103-.22.235-.416.396-.588.158-.172.352-.31.583-.413.231-.106.511-.16.841-.16.36 0 .697.063 1.012.188.312.12.585.3.82.539.231.235.414.522.55.863.132.341.198.732.198 1.172 0 .253-.026.502-.077.748a3.855 3.855 0 0 1-.209.71 3.835 3.835 0 0 1-.33.632 3.159 3.159 0 0 1-.429.522l-.71-.429a.523.523 0 0 1-.126-.143.356.356 0 0 1-.055-.192c0-.092.038-.19.115-.297.074-.106.156-.231.248-.374.092-.147.176-.317.253-.512.073-.198.11-.434.11-.71 0-.42-.099-.747-.297-.978-.202-.231-.49-.347-.864-.347a.79.79 0 0 0-.511.16c-.132.103-.242.24-.33.412a2.98 2.98 0 0 0-.231.589c-.062.22-.13.444-.204.67a5.77 5.77 0 0 1-.264.672c-.102.22-.236.416-.401.588-.165.173-.37.312-.616.418-.25.103-.555.154-.918.154-.29 0-.572-.056-.847-.17a2.222 2.222 0 0 1-.732-.506 2.528 2.528 0 0 1-.511-.82 2.973 2.973 0 0 1-.193-1.105c0-.47.073-.902.22-1.298.147-.396.352-.733.616-1.012l.698.363ZM57.909 62.83H61v1.479h-3.091l-4.862 2.898v-1.303c0-.128.031-.23.094-.302a.768.768 0 0 1 .236-.193l2.656-1.458a7.476 7.476 0 0 1 .864-.39c-.14-.048-.279-.1-.418-.16a5.571 5.571 0 0 1-.446-.22l-2.656-1.446a.737.737 0 0 1-.226-.181.454.454 0 0 1-.104-.309v-1.308l4.862 2.893Z"/></g><g fill="#9F8D58"><path d="m110.709 150.075-.312 1.101a.522.522 0 0 1-.177.281.566.566 0 0 1-.281.103l-1.723.129-.899 3.17 1.399 1.014a.51.51 0 0 1 .174.232c.044.1.049.21.015.33l-.313 1.106-6.799-5.175.413-1.456 8.503-.835Zm-4.294 4.133.692-2.439-2.809.209a16.33 16.33 0 0 1-.437.031 13.7 13.7 0 0 1-.545.005c.166.101.319.198.461.291.142.09.265.174.368.253l2.27 1.65ZM110.544 143.784a.277.277 0 0 1 .147-.175l.767-.388c.297.419.483.885.558 1.398.077.51.025 1.082-.155 1.717a4.029 4.029 0 0 1-.726 1.452 3.516 3.516 0 0 1-1.138.929c-.437.223-.92.353-1.449.39a4.885 4.885 0 0 1-1.643-.192 4.365 4.365 0 0 1-1.496-.733 3.746 3.746 0 0 1-1.01-1.155 3.747 3.747 0 0 1-.453-1.467 4.418 4.418 0 0 1 .162-1.68c.161-.568.393-1.038.697-1.409a3.562 3.562 0 0 1 1.03-.891l.527.664c.034.04.06.088.079.142a.306.306 0 0 1-.003.194.433.433 0 0 1-.166.222 2.676 2.676 0 0 0-.645.703 2.59 2.59 0 0 0-.31.729c-.102.36-.133.71-.092 1.049.039.335.143.645.314.929.172.282.408.532.708.75.297.214.654.38 1.071.498.43.122.83.171 1.199.146.37-.029.699-.114.987-.257a2.22 2.22 0 0 0 .738-.586c.2-.248.346-.534.438-.859.055-.194.094-.372.117-.533a2.31 2.31 0 0 0 .023-.462 1.975 1.975 0 0 0-.069-.425 2.476 2.476 0 0 0-.169-.431.436.436 0 0 1-.042-.133.262.262 0 0 1 .004-.136ZM114.778 135.731l-.312 1.1a.533.533 0 0 1-.177.282.583.583 0 0 1-.281.103l-1.723.129-.899 3.169 1.399 1.014a.52.52 0 0 1 .174.233c.044.1.049.21.015.33l-.314 1.106-6.799-5.176.413-1.455 8.504-.835Zm-4.294 4.133.692-2.439-2.809.209c-.125.01-.271.02-.438.03-.169.006-.351.008-.545.006.166.1.32.197.461.291.142.09.265.174.369.253l2.27 1.65ZM113.103 127.064c.56.159 1.049.398 1.465.718.416.32.746.698.988 1.132.243.435.39.917.442 1.446a4.465 4.465 0 0 1-.168 1.662l-.829 2.921-7.651-2.17.828-2.921a4.376 4.376 0 0 1 .735-1.501c.322-.423.7-.756 1.135-.999a3.642 3.642 0 0 1 1.43-.446 4.303 4.303 0 0 1 1.625.158Zm-.413 1.455a3.653 3.653 0 0 0-1.175-.151 2.459 2.459 0 0 0-.983.242 2.139 2.139 0 0 0-.751.61 2.7 2.7 0 0 0-.47.953l-.422 1.487 5.387 1.528.421-1.487c.106-.374.14-.727.1-1.058a2.164 2.164 0 0 0-.313-.912 2.522 2.522 0 0 0-.71-.722 3.666 3.666 0 0 0-1.084-.49ZM110.961 120.041l1.132.321-.962 3.392 2.122.602.758-2.672 1.095.31-.758 2.672 2.165.614.962-3.391 1.137.322-1.368 4.826-7.652-2.17 1.369-4.826ZM116.876 116.239c.13-.028.264-.049.401-.064.135-.019.271-.035.409-.05a10.887 10.887 0 0 1-.332-.26 4.507 4.507 0 0 1-.307-.269l-3.596-3.467a.693.693 0 0 1-.103-.121.31.31 0 0 1-.04-.12.513.513 0 0 1 .009-.134c.01-.047.024-.102.042-.166l.304-1.074 7.651 2.17-.355 1.254-4.942-1.402a10.65 10.65 0 0 1-.3-.09 19.042 19.042 0 0 1-.326-.121l3.683 3.542a.65.65 0 0 1 .174.273c.029.1.027.206-.005.319l-.055.195a.566.566 0 0 1-.164.274.65.65 0 0 1-.291.141l-5.019 1.108c.12.019.237.043.351.072.111.024.215.049.31.076l4.942 1.402-.356 1.254-7.651-2.17.305-1.074c.018-.064.035-.118.052-.163a.408.408 0 0 1 .06-.114.32.32 0 0 1 .099-.087.58.58 0 0 1 .153-.053l4.897-1.081ZM119.743 106.897l2.974.843-.404 1.423-2.974-.843-5.468 1.462.356-1.254a.453.453 0 0 1 .172-.266.76.76 0 0 1 .28-.12l2.954-.678a8.199 8.199 0 0 1 .937-.14 6.8 6.8 0 0 1-.359-.267 5.431 5.431 0 0 1-.368-.334l-2.161-2.116a.738.738 0 0 1-.168-.236.455.455 0 0 1-.016-.325l.357-1.259 3.888 4.11Z"/></g></g><defs><filter id="a" width="216" height="224.179" x="0" y=".821" color-interpolation-filters="sRGB" filterUnits="userSpaceOnUse"><feFlood flood-opacity="0" result="BackgroundImageFix"/><feColorMatrix in="SourceAlpha" result="hardAlpha" values="0 0 0 0 0 0 0 0 0 0 0 0 0 0 0 0 0 0 127 0"/><feOffset dy="4"/><feGaussianBlur stdDeviation="2"/><feComposite in2="hardAlpha" operator="out"/><feColorMatrix values="0 0 0 0 0 0 0 0 0 0 0 0 0 0 0 0 0 0 0.25 0"/><feBlend in2="BackgroundImageFix" result="effect1_dropShadow_8_36"/><feColorMatrix in="SourceAlpha" result="hardAlpha" values="0 0 0 0 0 0 0 0 0 0 0 0 0 0 0 0 0 0 127 0"/><feOffset dy="4"/><feGaussianBlur stdDeviation="2"/><feComposite in2="hardAlpha" operator="out"/><feColorMatrix values="0 0 0 0 0 0 0 0 0 0 0 0 0 0 0 0 0 0 0.25 0"/><feBlend in2="effect1_dropShadow_8_36" result="effect2_dropShadow_8_36"/><feBlend in="SourceGraphic" in2="effect2_dropShadow_8_36" result="shape"/></filter></defs></svg>